<svg xmlns="http://www.w3.org/2000/svg" height="100" width="470" viewbox="0 0 470 100">
    <rect x="50" y="0" width="370" height="100" fill="$bgColor$"/>
    <circle cx="420" cy="50" r="50" fill="$rankColor$"/>
    <!-- AWC logo -->
    <svg xmlns="http://www.w3.org/2000/svg" viewBox="0 0 1000 1000" x="-185">
    <polygon points="228.12 428 259.78 532.76 196.45 532.76 228.12 428" style="fill:#13223d"/>
        <path d="M278,340,398,660H298.23l-16.62-55h-107L158,660H58L178,340ZM259.78,532.76,228.12,428,196.45,532.76Z" style="fill:#fff"/>
        <path d="M877,527.44l83.28,24.66C949,601.18,915.33,660,815.51,660c-87.83,0-126.73-46.35-143.55-91.23l43.46-198.7C738.35,352.17,770.51,340,815.51,340c91.82,0,127.7,49.77,141.6,95.95l-83.62,18.89c-12.36-43.12-43.06-43.12-58-43.12-9.64,0-60.36,0-60.36,88.28s50.72,88.28,60.36,88.28c16.53,0,52.4-6,61.29-60.87Z" style="fill:#33caff"/>
        <polygon points="722 340 715.42 370.07 671.96 568.77 652 660 554 660 500 462 446 660 445.84 660 398 660 278 340 372 340 405 516 453 340 547 340 595 516 628 340 722 340" style="fill:#09f"/>
        <path d="M876.8,527.41c-8.89,54.91-44.76,60.87-61.29,60.87-9.64,0-60.36,0-60.36-88.28s50.72-88.28,60.36-88.28c14.92,0,45.62,0,58,43.12L957.11,436C943.21,389.77,907.33,340,815.51,340c-45,0-77.16,12.17-100.09,30.07L722,340H628L595,516,547,340H453L405,516,372,340H178L58,660H158l16.62-55h107l16.62,55H446l54-198,54,198h98l20-91.23C688.78,613.65,727.68,660,815.51,660c99.82,0,133.53-58.82,144.76-107.9L877,527.44ZM500,0c276.14,0,500,223.86,500,500s-223.86,500-500,500S0,776.14,0,500,223.86,0,500,0Z" style="fill:#13223d"/>
    </svg>
    <style>
        .label {
            font: bold 20px sans-serif;
            fill: $textColor$;
            text-anchor: middle;
        }
        .placement {
            fill: $placementColor$;
            text-anchor: middle;
            dominant-baseline: middle;
        }
        .placement-1-d,
        .placement-2-d {
            font: bold 50px sans-serif;
        }
        
        .placement-3-d {
            font: bold 33px sans-serif;
        }
        .placement-4-d {
            font: bold 30px sans-serif;
        }
    </style>
    <text x="420" y="55" class="placement placement-$digits$-d">#$placement$</text>
    <text x="235" y="45" class="label">$username$</text>
    <text x="235" y="65" class="label">$points$p - $rank$</text>
</svg>